<?xml version="1.0" encoding="utf-8" standalone="no"?>
<!DOCTYPE svg PUBLIC "-//W3C//DTD SVG 1.1//EN"
  "http://www.w3.org/Graphics/SVG/1.1/DTD/svg11.dtd">
<svg xmlns:xlink="http://www.w3.org/1999/xlink" width="712.7475pt" height="280.880326pt" viewBox="0 0 712.7475 280.880326" xmlns="http://www.w3.org/2000/svg" version="1.1">
 <metadata>
  <rdf:RDF xmlns:dc="http://purl.org/dc/elements/1.1/" xmlns:cc="http://creativecommons.org/ns#" xmlns:rdf="http://www.w3.org/1999/02/22-rdf-syntax-ns#">
   <cc:Work>
    <dc:type rdf:resource="http://purl.org/dc/dcmitype/StillImage"/>
    <dc:date>2026-05-06T23:43:40.577869</dc:date>
    <dc:format>image/svg+xml</dc:format>
    <dc:creator>
     <cc:Agent>
      <dc:title>Matplotlib v3.10.9, https://matplotlib.org/</dc:title>
     </cc:Agent>
    </dc:creator>
   </cc:Work>
  </rdf:RDF>
 </metadata>
 <defs>
  <style type="text/css">*{stroke-linejoin: round; stroke-linecap: butt}</style>
 </defs>
 <g id="figure_1">
  <g id="patch_1">
   <path d="M 0 280.880326 
L 712.7475 280.880326 
L 712.7475 -0 
L 0 -0 
L 0 280.880326 
z
" style="fill: none"/>
  </g>
  <g id="axes_1">
   <g id="patch_2">
    <path d="M 33.2875 233.972218 
L 705.5475 233.972218 
L 705.5475 31.318125 
L 33.2875 31.318125 
L 33.2875 233.972218 
z
" style="fill: none"/>
   </g>
   <g id="FillBetweenPolyCollection_1">
    <defs>
     <path id="m01adae03c9" d="M 63.844773 -56.119658 
L 63.844773 -70.067089 
L 88.290591 -60.074899 
L 112.736409 -62.364776 
L 137.182227 -60.491241 
L 161.628045 -69.442577 
L 186.073864 -62.572947 
L 210.519682 -71.107942 
L 234.9655 -57.160511 
L 259.411318 -56.327828 
L 283.857136 -56.95234 
L 308.302955 -56.535999 
L 332.748773 -58.617705 
L 357.194591 -58.409534 
L 381.640409 -57.368681 
L 406.086227 -59.242217 
L 430.532045 -76.312207 
L 454.977864 -60.491241 
L 479.423682 -60.28307 
L 503.8695 -57.576852 
L 528.315318 -63.82197 
L 552.761136 -56.327828 
L 577.206955 -57.576852 
L 601.652773 -60.699411 
L 626.098591 -56.327828 
L 650.544409 -57.576852 
L 674.990227 -58.409534 
L 674.990227 -56.119658 
L 674.990227 -56.119658 
L 650.544409 -56.119658 
L 626.098591 -56.119658 
L 601.652773 -56.119658 
L 577.206955 -56.119658 
L 552.761136 -56.119658 
L 528.315318 -56.119658 
L 503.8695 -56.119658 
L 479.423682 -56.119658 
L 454.977864 -56.119658 
L 430.532045 -56.119658 
L 406.086227 -56.119658 
L 381.640409 -56.119658 
L 357.194591 -56.119658 
L 332.748773 -56.119658 
L 308.302955 -56.119658 
L 283.857136 -56.119658 
L 259.411318 -56.119658 
L 234.9655 -56.119658 
L 210.519682 -56.119658 
L 186.073864 -56.119658 
L 161.628045 -56.119658 
L 137.182227 -56.119658 
L 112.736409 -56.119658 
L 88.290591 -56.119658 
L 63.844773 -56.119658 
z
" style="stroke: #58a6ff; stroke-opacity: 0.1"/>
    </defs>
    <g clip-path="url(#p2464faad65)">
     <use xlink:href="#m01adae03c9" x="0" y="280.880326" style="fill: #58a6ff; fill-opacity: 0.1; stroke: #58a6ff; stroke-opacity: 0.1"/>
    </g>
   </g>
   <g id="FillBetweenPolyCollection_2">
    <defs>
     <path id="me254c94649" d="M 63.844773 -56.119658 
L 63.844773 -111.701212 
L 88.290591 -103.790728 
L 112.736409 -100.459999 
L 137.182227 -112.950235 
L 161.628045 -140.636927 
L 186.073864 -129.187543 
L 210.519682 -129.812055 
L 234.9655 -66.528188 
L 259.411318 -61.115752 
L 283.857136 -58.825876 
L 308.302955 -59.034046 
L 332.748773 -58.825876 
L 357.194591 -82.557326 
L 381.640409 -172.07069 
L 406.086227 -64.238312 
L 430.532045 -188.099827 
L 454.977864 -190.806045 
L 479.423682 -133.975468 
L 503.8695 -135.432662 
L 528.315318 -146.673875 
L 552.761136 -126.273155 
L 577.206955 -159.580453 
L 601.652773 -240.350651 
L 626.098591 -148.963752 
L 650.544409 -127.93852 
L 674.990227 -151.66997 
L 674.990227 -56.119658 
L 674.990227 -56.119658 
L 650.544409 -56.119658 
L 626.098591 -56.119658 
L 601.652773 -56.119658 
L 577.206955 -56.119658 
L 552.761136 -56.119658 
L 528.315318 -56.119658 
L 503.8695 -56.119658 
L 479.423682 -56.119658 
L 454.977864 -56.119658 
L 430.532045 -56.119658 
L 406.086227 -56.119658 
L 381.640409 -56.119658 
L 357.194591 -56.119658 
L 332.748773 -56.119658 
L 308.302955 -56.119658 
L 283.857136 -56.119658 
L 259.411318 -56.119658 
L 234.9655 -56.119658 
L 210.519682 -56.119658 
L 186.073864 -56.119658 
L 161.628045 -56.119658 
L 137.182227 -56.119658 
L 112.736409 -56.119658 
L 88.290591 -56.119658 
L 63.844773 -56.119658 
z
" style="stroke: #3fb950; stroke-opacity: 0.1"/>
    </defs>
    <g clip-path="url(#p2464faad65)">
     <use xlink:href="#me254c94649" x="0" y="280.880326" style="fill: #3fb950; fill-opacity: 0.1; stroke: #3fb950; stroke-opacity: 0.1"/>
    </g>
   </g>
   <g id="matplotlib.axis_1">
    <g id="xtick_1">
     <g id="line2d_1">
      <defs>
       <path id="m185040892e" d="M 0 0 
L 0 3.5 
" style="stroke: #8b949e; stroke-width: 0.8"/>
      </defs>
      <g>
       <use xlink:href="#m185040892e" x="39.398955" y="233.972218" style="fill: #8b949e; stroke: #8b949e; stroke-width: 0.8"/>
      </g>
     </g>
     <g id="text_1">
      <!-- Apr 09 -->
      <g style="fill: #8b949e" transform="translate(29.61105 269.82328) rotate(-45) scale(0.1 -0.1)">
       <defs>
        <path id="DejaVuSans-41" d="M 2188 4044 
L 1331 1722 
L 3047 1722 
L 2188 4044 
z
M 1831 4666 
L 2547 4666 
L 4325 0 
L 3669 0 
L 3244 1197 
L 1141 1197 
L 716 0 
L 50 0 
L 1831 4666 
z
" transform="scale(0.015625)"/>
        <path id="DejaVuSans-70" d="M 1159 525 
L 1159 -1331 
L 581 -1331 
L 581 3500 
L 1159 3500 
L 1159 2969 
Q 1341 3281 1617 3432 
Q 1894 3584 2278 3584 
Q 2916 3584 3314 3078 
Q 3713 2572 3713 1747 
Q 3713 922 3314 415 
Q 2916 -91 2278 -91 
Q 1894 -91 1617 61 
Q 1341 213 1159 525 
z
M 3116 1747 
Q 3116 2381 2855 2742 
Q 2594 3103 2138 3103 
Q 1681 3103 1420 2742 
Q 1159 2381 1159 1747 
Q 1159 1113 1420 752 
Q 1681 391 2138 391 
Q 2594 391 2855 752 
Q 3116 1113 3116 1747 
z
" transform="scale(0.015625)"/>
        <path id="DejaVuSans-72" d="M 2631 2963 
Q 2534 3019 2420 3045 
Q 2306 3072 2169 3072 
Q 1681 3072 1420 2755 
Q 1159 2438 1159 1844 
L 1159 0 
L 581 0 
L 581 3500 
L 1159 3500 
L 1159 2956 
Q 1341 3275 1631 3429 
Q 1922 3584 2338 3584 
Q 2397 3584 2469 3576 
Q 2541 3569 2628 3553 
L 2631 2963 
z
" transform="scale(0.015625)"/>
        <path id="DejaVuSans-20" transform="scale(0.015625)"/>
        <path id="DejaVuSans-30" d="M 2034 4250 
Q 1547 4250 1301 3770 
Q 1056 3291 1056 2328 
Q 1056 1369 1301 889 
Q 1547 409 2034 409 
Q 2525 409 2770 889 
Q 3016 1369 3016 2328 
Q 3016 3291 2770 3770 
Q 2525 4250 2034 4250 
z
M 2034 4750 
Q 2819 4750 3233 4129 
Q 3647 3509 3647 2328 
Q 3647 1150 3233 529 
Q 2819 -91 2034 -91 
Q 1250 -91 836 529 
Q 422 1150 422 2328 
Q 422 3509 836 4129 
Q 1250 4750 2034 4750 
z
" transform="scale(0.015625)"/>
        <path id="DejaVuSans-39" d="M 703 97 
L 703 672 
Q 941 559 1184 500 
Q 1428 441 1663 441 
Q 2288 441 2617 861 
Q 2947 1281 2994 2138 
Q 2813 1869 2534 1725 
Q 2256 1581 1919 1581 
Q 1219 1581 811 2004 
Q 403 2428 403 3163 
Q 403 3881 828 4315 
Q 1253 4750 1959 4750 
Q 2769 4750 3195 4129 
Q 3622 3509 3622 2328 
Q 3622 1225 3098 567 
Q 2575 -91 1691 -91 
Q 1453 -91 1209 -44 
Q 966 3 703 97 
z
M 1959 2075 
Q 2384 2075 2632 2365 
Q 2881 2656 2881 3163 
Q 2881 3666 2632 3958 
Q 2384 4250 1959 4250 
Q 1534 4250 1286 3958 
Q 1038 3666 1038 3163 
Q 1038 2656 1286 2365 
Q 1534 2075 1959 2075 
z
" transform="scale(0.015625)"/>
       </defs>
       <use xlink:href="#DejaVuSans-41"/>
       <use xlink:href="#DejaVuSans-70" transform="translate(68.408203 0)"/>
       <use xlink:href="#DejaVuSans-72" transform="translate(131.884766 0)"/>
       <use xlink:href="#DejaVuSans-20" transform="translate(172.998047 0)"/>
       <use xlink:href="#DejaVuSans-30" transform="translate(204.785156 0)"/>
       <use xlink:href="#DejaVuSans-39" transform="translate(268.408203 0)"/>
      </g>
     </g>
    </g>
    <g id="xtick_2">
     <g id="line2d_2">
      <g>
       <use xlink:href="#m185040892e" x="137.182227" y="233.972218" style="fill: #8b949e; stroke: #8b949e; stroke-width: 0.8"/>
      </g>
     </g>
     <g id="text_2">
      <!-- Apr 13 -->
      <g style="fill: #8b949e" transform="translate(127.394323 269.82328) rotate(-45) scale(0.1 -0.1)">
       <defs>
        <path id="DejaVuSans-31" d="M 794 531 
L 1825 531 
L 1825 4091 
L 703 3866 
L 703 4441 
L 1819 4666 
L 2450 4666 
L 2450 531 
L 3481 531 
L 3481 0 
L 794 0 
L 794 531 
z
" transform="scale(0.015625)"/>
        <path id="DejaVuSans-33" d="M 2597 2516 
Q 3050 2419 3304 2112 
Q 3559 1806 3559 1356 
Q 3559 666 3084 287 
Q 2609 -91 1734 -91 
Q 1441 -91 1130 -33 
Q 819 25 488 141 
L 488 750 
Q 750 597 1062 519 
Q 1375 441 1716 441 
Q 2309 441 2620 675 
Q 2931 909 2931 1356 
Q 2931 1769 2642 2001 
Q 2353 2234 1838 2234 
L 1294 2234 
L 1294 2753 
L 1863 2753 
Q 2328 2753 2575 2939 
Q 2822 3125 2822 3475 
Q 2822 3834 2567 4026 
Q 2313 4219 1838 4219 
Q 1578 4219 1281 4162 
Q 984 4106 628 3988 
L 628 4550 
Q 988 4650 1302 4700 
Q 1616 4750 1894 4750 
Q 2613 4750 3031 4423 
Q 3450 4097 3450 3541 
Q 3450 3153 3228 2886 
Q 3006 2619 2597 2516 
z
" transform="scale(0.015625)"/>
       </defs>
       <use xlink:href="#DejaVuSans-41"/>
       <use xlink:href="#DejaVuSans-70" transform="translate(68.408203 0)"/>
       <use xlink:href="#DejaVuSans-72" transform="translate(131.884766 0)"/>
       <use xlink:href="#DejaVuSans-20" transform="translate(172.998047 0)"/>
       <use xlink:href="#DejaVuSans-31" transform="translate(204.785156 0)"/>
       <use xlink:href="#DejaVuSans-33" transform="translate(268.408203 0)"/>
      </g>
     </g>
    </g>
    <g id="xtick_3">
     <g id="line2d_3">
      <g>
       <use xlink:href="#m185040892e" x="234.9655" y="233.972218" style="fill: #8b949e; stroke: #8b949e; stroke-width: 0.8"/>
      </g>
     </g>
     <g id="text_3">
      <!-- Apr 17 -->
      <g style="fill: #8b949e" transform="translate(225.177595 269.82328) rotate(-45) scale(0.1 -0.1)">
       <defs>
        <path id="DejaVuSans-37" d="M 525 4666 
L 3525 4666 
L 3525 4397 
L 1831 0 
L 1172 0 
L 2766 4134 
L 525 4134 
L 525 4666 
z
" transform="scale(0.015625)"/>
       </defs>
       <use xlink:href="#DejaVuSans-41"/>
       <use xlink:href="#DejaVuSans-70" transform="translate(68.408203 0)"/>
       <use xlink:href="#DejaVuSans-72" transform="translate(131.884766 0)"/>
       <use xlink:href="#DejaVuSans-20" transform="translate(172.998047 0)"/>
       <use xlink:href="#DejaVuSans-31" transform="translate(204.785156 0)"/>
       <use xlink:href="#DejaVuSans-37" transform="translate(268.408203 0)"/>
      </g>
     </g>
    </g>
    <g id="xtick_4">
     <g id="line2d_4">
      <g>
       <use xlink:href="#m185040892e" x="332.748773" y="233.972218" style="fill: #8b949e; stroke: #8b949e; stroke-width: 0.8"/>
      </g>
     </g>
     <g id="text_4">
      <!-- Apr 21 -->
      <g style="fill: #8b949e" transform="translate(322.960868 269.82328) rotate(-45) scale(0.1 -0.1)">
       <defs>
        <path id="DejaVuSans-32" d="M 1228 531 
L 3431 531 
L 3431 0 
L 469 0 
L 469 531 
Q 828 903 1448 1529 
Q 2069 2156 2228 2338 
Q 2531 2678 2651 2914 
Q 2772 3150 2772 3378 
Q 2772 3750 2511 3984 
Q 2250 4219 1831 4219 
Q 1534 4219 1204 4116 
Q 875 4013 500 3803 
L 500 4441 
Q 881 4594 1212 4672 
Q 1544 4750 1819 4750 
Q 2544 4750 2975 4387 
Q 3406 4025 3406 3419 
Q 3406 3131 3298 2873 
Q 3191 2616 2906 2266 
Q 2828 2175 2409 1742 
Q 1991 1309 1228 531 
z
" transform="scale(0.015625)"/>
       </defs>
       <use xlink:href="#DejaVuSans-41"/>
       <use xlink:href="#DejaVuSans-70" transform="translate(68.408203 0)"/>
       <use xlink:href="#DejaVuSans-72" transform="translate(131.884766 0)"/>
       <use xlink:href="#DejaVuSans-20" transform="translate(172.998047 0)"/>
       <use xlink:href="#DejaVuSans-32" transform="translate(204.785156 0)"/>
       <use xlink:href="#DejaVuSans-31" transform="translate(268.408203 0)"/>
      </g>
     </g>
    </g>
    <g id="xtick_5">
     <g id="line2d_5">
      <g>
       <use xlink:href="#m185040892e" x="430.532045" y="233.972218" style="fill: #8b949e; stroke: #8b949e; stroke-width: 0.8"/>
      </g>
     </g>
     <g id="text_5">
      <!-- Apr 25 -->
      <g style="fill: #8b949e" transform="translate(420.744141 269.82328) rotate(-45) scale(0.1 -0.1)">
       <defs>
        <path id="DejaVuSans-35" d="M 691 4666 
L 3169 4666 
L 3169 4134 
L 1269 4134 
L 1269 2991 
Q 1406 3038 1543 3061 
Q 1681 3084 1819 3084 
Q 2600 3084 3056 2656 
Q 3513 2228 3513 1497 
Q 3513 744 3044 326 
Q 2575 -91 1722 -91 
Q 1428 -91 1123 -41 
Q 819 9 494 109 
L 494 744 
Q 775 591 1075 516 
Q 1375 441 1709 441 
Q 2250 441 2565 725 
Q 2881 1009 2881 1497 
Q 2881 1984 2565 2268 
Q 2250 2553 1709 2553 
Q 1456 2553 1204 2497 
Q 953 2441 691 2322 
L 691 4666 
z
" transform="scale(0.015625)"/>
       </defs>
       <use xlink:href="#DejaVuSans-41"/>
       <use xlink:href="#DejaVuSans-70" transform="translate(68.408203 0)"/>
       <use xlink:href="#DejaVuSans-72" transform="translate(131.884766 0)"/>
       <use xlink:href="#DejaVuSans-20" transform="translate(172.998047 0)"/>
       <use xlink:href="#DejaVuSans-32" transform="translate(204.785156 0)"/>
       <use xlink:href="#DejaVuSans-35" transform="translate(268.408203 0)"/>
      </g>
     </g>
    </g>
    <g id="xtick_6">
     <g id="line2d_6">
      <g>
       <use xlink:href="#m185040892e" x="528.315318" y="233.972218" style="fill: #8b949e; stroke: #8b949e; stroke-width: 0.8"/>
      </g>
     </g>
     <g id="text_6">
      <!-- Apr 29 -->
      <g style="fill: #8b949e" transform="translate(518.527414 269.82328) rotate(-45) scale(0.1 -0.1)">
       <use xlink:href="#DejaVuSans-41"/>
       <use xlink:href="#DejaVuSans-70" transform="translate(68.408203 0)"/>
       <use xlink:href="#DejaVuSans-72" transform="translate(131.884766 0)"/>
       <use xlink:href="#DejaVuSans-20" transform="translate(172.998047 0)"/>
       <use xlink:href="#DejaVuSans-32" transform="translate(204.785156 0)"/>
       <use xlink:href="#DejaVuSans-39" transform="translate(268.408203 0)"/>
      </g>
     </g>
    </g>
    <g id="xtick_7">
     <g id="line2d_7">
      <g>
       <use xlink:href="#m185040892e" x="577.206955" y="233.972218" style="fill: #8b949e; stroke: #8b949e; stroke-width: 0.8"/>
      </g>
     </g>
     <g id="text_7">
      <!-- May 01 -->
      <g style="fill: #8b949e" transform="translate(566.225807 272.209765) rotate(-45) scale(0.1 -0.1)">
       <defs>
        <path id="DejaVuSans-4d" d="M 628 4666 
L 1569 4666 
L 2759 1491 
L 3956 4666 
L 4897 4666 
L 4897 0 
L 4281 0 
L 4281 4097 
L 3078 897 
L 2444 897 
L 1241 4097 
L 1241 0 
L 628 0 
L 628 4666 
z
" transform="scale(0.015625)"/>
        <path id="DejaVuSans-61" d="M 2194 1759 
Q 1497 1759 1228 1600 
Q 959 1441 959 1056 
Q 959 750 1161 570 
Q 1363 391 1709 391 
Q 2188 391 2477 730 
Q 2766 1069 2766 1631 
L 2766 1759 
L 2194 1759 
z
M 3341 1997 
L 3341 0 
L 2766 0 
L 2766 531 
Q 2569 213 2275 61 
Q 1981 -91 1556 -91 
Q 1019 -91 701 211 
Q 384 513 384 1019 
Q 384 1609 779 1909 
Q 1175 2209 1959 2209 
L 2766 2209 
L 2766 2266 
Q 2766 2663 2505 2880 
Q 2244 3097 1772 3097 
Q 1472 3097 1187 3025 
Q 903 2953 641 2809 
L 641 3341 
Q 956 3463 1253 3523 
Q 1550 3584 1831 3584 
Q 2591 3584 2966 3190 
Q 3341 2797 3341 1997 
z
" transform="scale(0.015625)"/>
        <path id="DejaVuSans-79" d="M 2059 -325 
Q 1816 -950 1584 -1140 
Q 1353 -1331 966 -1331 
L 506 -1331 
L 506 -850 
L 844 -850 
Q 1081 -850 1212 -737 
Q 1344 -625 1503 -206 
L 1606 56 
L 191 3500 
L 800 3500 
L 1894 763 
L 2988 3500 
L 3597 3500 
L 2059 -325 
z
" transform="scale(0.015625)"/>
       </defs>
       <use xlink:href="#DejaVuSans-4d"/>
       <use xlink:href="#DejaVuSans-61" transform="translate(86.279297 0)"/>
       <use xlink:href="#DejaVuSans-79" transform="translate(147.558594 0)"/>
       <use xlink:href="#DejaVuSans-20" transform="translate(206.738281 0)"/>
       <use xlink:href="#DejaVuSans-30" transform="translate(238.525391 0)"/>
       <use xlink:href="#DejaVuSans-31" transform="translate(302.148438 0)"/>
      </g>
     </g>
    </g>
    <g id="xtick_8">
     <g id="line2d_8">
      <g>
       <use xlink:href="#m185040892e" x="674.990227" y="233.972218" style="fill: #8b949e; stroke: #8b949e; stroke-width: 0.8"/>
      </g>
     </g>
     <g id="text_8">
      <!-- May 05 -->
      <g style="fill: #8b949e" transform="translate(664.00908 272.209765) rotate(-45) scale(0.1 -0.1)">
       <use xlink:href="#DejaVuSans-4d"/>
       <use xlink:href="#DejaVuSans-61" transform="translate(86.279297 0)"/>
       <use xlink:href="#DejaVuSans-79" transform="translate(147.558594 0)"/>
       <use xlink:href="#DejaVuSans-20" transform="translate(206.738281 0)"/>
       <use xlink:href="#DejaVuSans-30" transform="translate(238.525391 0)"/>
       <use xlink:href="#DejaVuSans-35" transform="translate(302.148438 0)"/>
      </g>
     </g>
    </g>
   </g>
   <g id="matplotlib.axis_2">
    <g id="ytick_1">
     <g id="line2d_9">
      <defs>
       <path id="m1ee062f222" d="M 0 0 
L -3.5 0 
" style="stroke: #8b949e; stroke-width: 0.8"/>
      </defs>
      <g>
       <use xlink:href="#m1ee062f222" x="33.2875" y="224.760668" style="fill: #8b949e; stroke: #8b949e; stroke-width: 0.8"/>
      </g>
     </g>
     <g id="text_9">
      <!-- 0 -->
      <g style="fill: #8b949e" transform="translate(19.925 228.559887) scale(0.1 -0.1)">
       <use xlink:href="#DejaVuSans-30"/>
      </g>
     </g>
    </g>
    <g id="ytick_2">
     <g id="line2d_10">
      <g>
       <use xlink:href="#m1ee062f222" x="33.2875" y="183.126546" style="fill: #8b949e; stroke: #8b949e; stroke-width: 0.8"/>
      </g>
     </g>
     <g id="text_10">
      <!-- 200 -->
      <g style="fill: #8b949e" transform="translate(7.2 186.925764) scale(0.1 -0.1)">
       <use xlink:href="#DejaVuSans-32"/>
       <use xlink:href="#DejaVuSans-30" transform="translate(63.623047 0)"/>
       <use xlink:href="#DejaVuSans-30" transform="translate(127.246094 0)"/>
      </g>
     </g>
    </g>
    <g id="ytick_3">
     <g id="line2d_11">
      <g>
       <use xlink:href="#m1ee062f222" x="33.2875" y="141.492423" style="fill: #8b949e; stroke: #8b949e; stroke-width: 0.8"/>
      </g>
     </g>
     <g id="text_11">
      <!-- 400 -->
      <g style="fill: #8b949e" transform="translate(7.2 145.291641) scale(0.1 -0.1)">
       <defs>
        <path id="DejaVuSans-34" d="M 2419 4116 
L 825 1625 
L 2419 1625 
L 2419 4116 
z
M 2253 4666 
L 3047 4666 
L 3047 1625 
L 3713 1625 
L 3713 1100 
L 3047 1100 
L 3047 0 
L 2419 0 
L 2419 1100 
L 313 1100 
L 313 1709 
L 2253 4666 
z
" transform="scale(0.015625)"/>
       </defs>
       <use xlink:href="#DejaVuSans-34"/>
       <use xlink:href="#DejaVuSans-30" transform="translate(63.623047 0)"/>
       <use xlink:href="#DejaVuSans-30" transform="translate(127.246094 0)"/>
      </g>
     </g>
    </g>
    <g id="ytick_4">
     <g id="line2d_12">
      <g>
       <use xlink:href="#m1ee062f222" x="33.2875" y="99.8583" style="fill: #8b949e; stroke: #8b949e; stroke-width: 0.8"/>
      </g>
     </g>
     <g id="text_12">
      <!-- 600 -->
      <g style="fill: #8b949e" transform="translate(7.2 103.657519) scale(0.1 -0.1)">
       <defs>
        <path id="DejaVuSans-36" d="M 2113 2584 
Q 1688 2584 1439 2293 
Q 1191 2003 1191 1497 
Q 1191 994 1439 701 
Q 1688 409 2113 409 
Q 2538 409 2786 701 
Q 3034 994 3034 1497 
Q 3034 2003 2786 2293 
Q 2538 2584 2113 2584 
z
M 3366 4563 
L 3366 3988 
Q 3128 4100 2886 4159 
Q 2644 4219 2406 4219 
Q 1781 4219 1451 3797 
Q 1122 3375 1075 2522 
Q 1259 2794 1537 2939 
Q 1816 3084 2150 3084 
Q 2853 3084 3261 2657 
Q 3669 2231 3669 1497 
Q 3669 778 3244 343 
Q 2819 -91 2113 -91 
Q 1303 -91 875 529 
Q 447 1150 447 2328 
Q 447 3434 972 4092 
Q 1497 4750 2381 4750 
Q 2619 4750 2861 4703 
Q 3103 4656 3366 4563 
z
" transform="scale(0.015625)"/>
       </defs>
       <use xlink:href="#DejaVuSans-36"/>
       <use xlink:href="#DejaVuSans-30" transform="translate(63.623047 0)"/>
       <use xlink:href="#DejaVuSans-30" transform="translate(127.246094 0)"/>
      </g>
     </g>
    </g>
    <g id="ytick_5">
     <g id="line2d_13">
      <g>
       <use xlink:href="#m1ee062f222" x="33.2875" y="58.224177" style="fill: #8b949e; stroke: #8b949e; stroke-width: 0.8"/>
      </g>
     </g>
     <g id="text_13">
      <!-- 800 -->
      <g style="fill: #8b949e" transform="translate(7.2 62.023396) scale(0.1 -0.1)">
       <defs>
        <path id="DejaVuSans-38" d="M 2034 2216 
Q 1584 2216 1326 1975 
Q 1069 1734 1069 1313 
Q 1069 891 1326 650 
Q 1584 409 2034 409 
Q 2484 409 2743 651 
Q 3003 894 3003 1313 
Q 3003 1734 2745 1975 
Q 2488 2216 2034 2216 
z
M 1403 2484 
Q 997 2584 770 2862 
Q 544 3141 544 3541 
Q 544 4100 942 4425 
Q 1341 4750 2034 4750 
Q 2731 4750 3128 4425 
Q 3525 4100 3525 3541 
Q 3525 3141 3298 2862 
Q 3072 2584 2669 2484 
Q 3125 2378 3379 2068 
Q 3634 1759 3634 1313 
Q 3634 634 3220 271 
Q 2806 -91 2034 -91 
Q 1263 -91 848 271 
Q 434 634 434 1313 
Q 434 1759 690 2068 
Q 947 2378 1403 2484 
z
M 1172 3481 
Q 1172 3119 1398 2916 
Q 1625 2713 2034 2713 
Q 2441 2713 2670 2916 
Q 2900 3119 2900 3481 
Q 2900 3844 2670 4047 
Q 2441 4250 2034 4250 
Q 1625 4250 1398 4047 
Q 1172 3844 1172 3481 
z
" transform="scale(0.015625)"/>
       </defs>
       <use xlink:href="#DejaVuSans-38"/>
       <use xlink:href="#DejaVuSans-30" transform="translate(63.623047 0)"/>
       <use xlink:href="#DejaVuSans-30" transform="translate(127.246094 0)"/>
      </g>
     </g>
    </g>
   </g>
   <g id="line2d_14">
    <path d="M 63.844773 210.813237 
L 88.290591 220.805427 
L 112.736409 218.51555 
L 137.182227 220.389086 
L 161.628045 211.437749 
L 186.073864 218.307379 
L 210.519682 209.772384 
L 234.9655 223.719815 
L 259.411318 224.552498 
L 283.857136 223.927986 
L 308.302955 224.344327 
L 332.748773 222.262621 
L 357.194591 222.470792 
L 381.640409 223.511645 
L 406.086227 221.638109 
L 430.532045 204.568119 
L 454.977864 220.389086 
L 479.423682 220.597256 
L 503.8695 223.303474 
L 528.315318 217.058356 
L 552.761136 224.552498 
L 577.206955 223.303474 
L 601.652773 220.180915 
L 626.098591 224.552498 
L 650.544409 223.303474 
L 674.990227 222.470792 
" clip-path="url(#p2464faad65)" style="fill: none; stroke: #58a6ff; stroke-width: 2; stroke-linecap: square"/>
    <defs>
     <path id="m3a03f00a9e" d="M 0 3 
C 0.795609 3 1.55874 2.683901 2.12132 2.12132 
C 2.683901 1.55874 3 0.795609 3 0 
C 3 -0.795609 2.683901 -1.55874 2.12132 -2.12132 
C 1.55874 -2.683901 0.795609 -3 0 -3 
C -0.795609 -3 -1.55874 -2.683901 -2.12132 -2.12132 
C -2.683901 -1.55874 -3 -0.795609 -3 0 
C -3 0.795609 -2.683901 1.55874 -2.12132 2.12132 
C -1.55874 2.683901 -0.795609 3 0 3 
z
" style="stroke: #58a6ff"/>
    </defs>
    <g clip-path="url(#p2464faad65)">
     <use xlink:href="#m3a03f00a9e" x="63.844773" y="210.813237" style="fill: #58a6ff; stroke: #58a6ff"/>
     <use xlink:href="#m3a03f00a9e" x="88.290591" y="220.805427" style="fill: #58a6ff; stroke: #58a6ff"/>
     <use xlink:href="#m3a03f00a9e" x="112.736409" y="218.51555" style="fill: #58a6ff; stroke: #58a6ff"/>
     <use xlink:href="#m3a03f00a9e" x="137.182227" y="220.389086" style="fill: #58a6ff; stroke: #58a6ff"/>
     <use xlink:href="#m3a03f00a9e" x="161.628045" y="211.437749" style="fill: #58a6ff; stroke: #58a6ff"/>
     <use xlink:href="#m3a03f00a9e" x="186.073864" y="218.307379" style="fill: #58a6ff; stroke: #58a6ff"/>
     <use xlink:href="#m3a03f00a9e" x="210.519682" y="209.772384" style="fill: #58a6ff; stroke: #58a6ff"/>
     <use xlink:href="#m3a03f00a9e" x="234.9655" y="223.719815" style="fill: #58a6ff; stroke: #58a6ff"/>
     <use xlink:href="#m3a03f00a9e" x="259.411318" y="224.552498" style="fill: #58a6ff; stroke: #58a6ff"/>
     <use xlink:href="#m3a03f00a9e" x="283.857136" y="223.927986" style="fill: #58a6ff; stroke: #58a6ff"/>
     <use xlink:href="#m3a03f00a9e" x="308.302955" y="224.344327" style="fill: #58a6ff; stroke: #58a6ff"/>
     <use xlink:href="#m3a03f00a9e" x="332.748773" y="222.262621" style="fill: #58a6ff; stroke: #58a6ff"/>
     <use xlink:href="#m3a03f00a9e" x="357.194591" y="222.470792" style="fill: #58a6ff; stroke: #58a6ff"/>
     <use xlink:href="#m3a03f00a9e" x="381.640409" y="223.511645" style="fill: #58a6ff; stroke: #58a6ff"/>
     <use xlink:href="#m3a03f00a9e" x="406.086227" y="221.638109" style="fill: #58a6ff; stroke: #58a6ff"/>
     <use xlink:href="#m3a03f00a9e" x="430.532045" y="204.568119" style="fill: #58a6ff; stroke: #58a6ff"/>
     <use xlink:href="#m3a03f00a9e" x="454.977864" y="220.389086" style="fill: #58a6ff; stroke: #58a6ff"/>
     <use xlink:href="#m3a03f00a9e" x="479.423682" y="220.597256" style="fill: #58a6ff; stroke: #58a6ff"/>
     <use xlink:href="#m3a03f00a9e" x="503.8695" y="223.303474" style="fill: #58a6ff; stroke: #58a6ff"/>
     <use xlink:href="#m3a03f00a9e" x="528.315318" y="217.058356" style="fill: #58a6ff; stroke: #58a6ff"/>
     <use xlink:href="#m3a03f00a9e" x="552.761136" y="224.552498" style="fill: #58a6ff; stroke: #58a6ff"/>
     <use xlink:href="#m3a03f00a9e" x="577.206955" y="223.303474" style="fill: #58a6ff; stroke: #58a6ff"/>
     <use xlink:href="#m3a03f00a9e" x="601.652773" y="220.180915" style="fill: #58a6ff; stroke: #58a6ff"/>
     <use xlink:href="#m3a03f00a9e" x="626.098591" y="224.552498" style="fill: #58a6ff; stroke: #58a6ff"/>
     <use xlink:href="#m3a03f00a9e" x="650.544409" y="223.303474" style="fill: #58a6ff; stroke: #58a6ff"/>
     <use xlink:href="#m3a03f00a9e" x="674.990227" y="222.470792" style="fill: #58a6ff; stroke: #58a6ff"/>
    </g>
   </g>
   <g id="line2d_15">
    <path d="M 63.844773 169.179114 
L 88.290591 177.089598 
L 112.736409 180.420328 
L 137.182227 167.930091 
L 161.628045 140.243399 
L 186.073864 151.692783 
L 210.519682 151.068271 
L 234.9655 214.352138 
L 259.411318 219.764574 
L 283.857136 222.05445 
L 308.302955 221.84628 
L 332.748773 222.05445 
L 357.194591 198.323 
L 381.640409 108.809636 
L 406.086227 216.642014 
L 430.532045 92.780499 
L 454.977864 90.074281 
L 479.423682 146.904859 
L 503.8695 145.447664 
L 528.315318 134.206451 
L 552.761136 154.607171 
L 577.206955 121.299873 
L 601.652773 40.529675 
L 626.098591 131.916574 
L 650.544409 152.941806 
L 674.990227 129.210356 
" clip-path="url(#p2464faad65)" style="fill: none; stroke: #3fb950; stroke-width: 2; stroke-linecap: square"/>
    <defs>
     <path id="m027efb8580" d="M 0 3 
C 0.795609 3 1.55874 2.683901 2.12132 2.12132 
C 2.683901 1.55874 3 0.795609 3 0 
C 3 -0.795609 2.683901 -1.55874 2.12132 -2.12132 
C 1.55874 -2.683901 0.795609 -3 0 -3 
C -0.795609 -3 -1.55874 -2.683901 -2.12132 -2.12132 
C -2.683901 -1.55874 -3 -0.795609 -3 0 
C -3 0.795609 -2.683901 1.55874 -2.12132 2.12132 
C -1.55874 2.683901 -0.795609 3 0 3 
z
" style="stroke: #3fb950"/>
    </defs>
    <g clip-path="url(#p2464faad65)">
     <use xlink:href="#m027efb8580" x="63.844773" y="169.179114" style="fill: #3fb950; stroke: #3fb950"/>
     <use xlink:href="#m027efb8580" x="88.290591" y="177.089598" style="fill: #3fb950; stroke: #3fb950"/>
     <use xlink:href="#m027efb8580" x="112.736409" y="180.420328" style="fill: #3fb950; stroke: #3fb950"/>
     <use xlink:href="#m027efb8580" x="137.182227" y="167.930091" style="fill: #3fb950; stroke: #3fb950"/>
     <use xlink:href="#m027efb8580" x="161.628045" y="140.243399" style="fill: #3fb950; stroke: #3fb950"/>
     <use xlink:href="#m027efb8580" x="186.073864" y="151.692783" style="fill: #3fb950; stroke: #3fb950"/>
     <use xlink:href="#m027efb8580" x="210.519682" y="151.068271" style="fill: #3fb950; stroke: #3fb950"/>
     <use xlink:href="#m027efb8580" x="234.9655" y="214.352138" style="fill: #3fb950; stroke: #3fb950"/>
     <use xlink:href="#m027efb8580" x="259.411318" y="219.764574" style="fill: #3fb950; stroke: #3fb950"/>
     <use xlink:href="#m027efb8580" x="283.857136" y="222.05445" style="fill: #3fb950; stroke: #3fb950"/>
     <use xlink:href="#m027efb8580" x="308.302955" y="221.84628" style="fill: #3fb950; stroke: #3fb950"/>
     <use xlink:href="#m027efb8580" x="332.748773" y="222.05445" style="fill: #3fb950; stroke: #3fb950"/>
     <use xlink:href="#m027efb8580" x="357.194591" y="198.323" style="fill: #3fb950; stroke: #3fb950"/>
     <use xlink:href="#m027efb8580" x="381.640409" y="108.809636" style="fill: #3fb950; stroke: #3fb950"/>
     <use xlink:href="#m027efb8580" x="406.086227" y="216.642014" style="fill: #3fb950; stroke: #3fb950"/>
     <use xlink:href="#m027efb8580" x="430.532045" y="92.780499" style="fill: #3fb950; stroke: #3fb950"/>
     <use xlink:href="#m027efb8580" x="454.977864" y="90.074281" style="fill: #3fb950; stroke: #3fb950"/>
     <use xlink:href="#m027efb8580" x="479.423682" y="146.904859" style="fill: #3fb950; stroke: #3fb950"/>
     <use xlink:href="#m027efb8580" x="503.8695" y="145.447664" style="fill: #3fb950; stroke: #3fb950"/>
     <use xlink:href="#m027efb8580" x="528.315318" y="134.206451" style="fill: #3fb950; stroke: #3fb950"/>
     <use xlink:href="#m027efb8580" x="552.761136" y="154.607171" style="fill: #3fb950; stroke: #3fb950"/>
     <use xlink:href="#m027efb8580" x="577.206955" y="121.299873" style="fill: #3fb950; stroke: #3fb950"/>
     <use xlink:href="#m027efb8580" x="601.652773" y="40.529675" style="fill: #3fb950; stroke: #3fb950"/>
     <use xlink:href="#m027efb8580" x="626.098591" y="131.916574" style="fill: #3fb950; stroke: #3fb950"/>
     <use xlink:href="#m027efb8580" x="650.544409" y="152.941806" style="fill: #3fb950; stroke: #3fb950"/>
     <use xlink:href="#m027efb8580" x="674.990227" y="129.210356" style="fill: #3fb950; stroke: #3fb950"/>
    </g>
   </g>
   <g id="patch_3">
    <path d="M 33.2875 233.972218 
L 33.2875 31.318125 
" style="fill: none; stroke: #30363d; stroke-width: 0.8; stroke-linejoin: miter; stroke-linecap: square"/>
   </g>
   <g id="patch_4">
    <path d="M 33.2875 233.972218 
L 705.5475 233.972218 
" style="fill: none; stroke: #30363d; stroke-width: 0.8; stroke-linejoin: miter; stroke-linecap: square"/>
   </g>
   <g id="text_14">
    <!-- Repository Traffic (14-Day History) -->
    <g style="fill: #c9d1d9" transform="translate(251.695625 16.318125) scale(0.12 -0.12)">
     <defs>
      <path id="DejaVuSans-Bold-52" d="M 2297 2597 
Q 2675 2597 2839 2737 
Q 3003 2878 3003 3200 
Q 3003 3519 2839 3656 
Q 2675 3794 2297 3794 
L 1791 3794 
L 1791 2597 
L 2297 2597 
z
M 1791 1766 
L 1791 0 
L 588 0 
L 588 4666 
L 2425 4666 
Q 3347 4666 3776 4356 
Q 4206 4047 4206 3378 
Q 4206 2916 3982 2619 
Q 3759 2322 3309 2181 
Q 3556 2125 3751 1926 
Q 3947 1728 4147 1325 
L 4800 0 
L 3519 0 
L 2950 1159 
Q 2778 1509 2601 1637 
Q 2425 1766 2131 1766 
L 1791 1766 
z
" transform="scale(0.015625)"/>
      <path id="DejaVuSans-Bold-65" d="M 4031 1759 
L 4031 1441 
L 1416 1441 
Q 1456 1047 1700 850 
Q 1944 653 2381 653 
Q 2734 653 3104 758 
Q 3475 863 3866 1075 
L 3866 213 
Q 3469 63 3072 -14 
Q 2675 -91 2278 -91 
Q 1328 -91 801 392 
Q 275 875 275 1747 
Q 275 2603 792 3093 
Q 1309 3584 2216 3584 
Q 3041 3584 3536 3087 
Q 4031 2591 4031 1759 
z
M 2881 2131 
Q 2881 2450 2695 2645 
Q 2509 2841 2209 2841 
Q 1884 2841 1681 2658 
Q 1478 2475 1428 2131 
L 2881 2131 
z
" transform="scale(0.015625)"/>
      <path id="DejaVuSans-Bold-70" d="M 1656 506 
L 1656 -1331 
L 538 -1331 
L 538 3500 
L 1656 3500 
L 1656 2988 
Q 1888 3294 2169 3439 
Q 2450 3584 2816 3584 
Q 3463 3584 3878 3070 
Q 4294 2556 4294 1747 
Q 4294 938 3878 423 
Q 3463 -91 2816 -91 
Q 2450 -91 2169 54 
Q 1888 200 1656 506 
z
M 2400 2772 
Q 2041 2772 1848 2508 
Q 1656 2244 1656 1747 
Q 1656 1250 1848 986 
Q 2041 722 2400 722 
Q 2759 722 2948 984 
Q 3138 1247 3138 1747 
Q 3138 2247 2948 2509 
Q 2759 2772 2400 2772 
z
" transform="scale(0.015625)"/>
      <path id="DejaVuSans-Bold-6f" d="M 2203 2784 
Q 1831 2784 1636 2517 
Q 1441 2250 1441 1747 
Q 1441 1244 1636 976 
Q 1831 709 2203 709 
Q 2569 709 2762 976 
Q 2956 1244 2956 1747 
Q 2956 2250 2762 2517 
Q 2569 2784 2203 2784 
z
M 2203 3584 
Q 3106 3584 3614 3096 
Q 4122 2609 4122 1747 
Q 4122 884 3614 396 
Q 3106 -91 2203 -91 
Q 1297 -91 786 396 
Q 275 884 275 1747 
Q 275 2609 786 3096 
Q 1297 3584 2203 3584 
z
" transform="scale(0.015625)"/>
      <path id="DejaVuSans-Bold-73" d="M 3272 3391 
L 3272 2541 
Q 2913 2691 2578 2766 
Q 2244 2841 1947 2841 
Q 1628 2841 1473 2761 
Q 1319 2681 1319 2516 
Q 1319 2381 1436 2309 
Q 1553 2238 1856 2203 
L 2053 2175 
Q 2913 2066 3209 1816 
Q 3506 1566 3506 1031 
Q 3506 472 3093 190 
Q 2681 -91 1863 -91 
Q 1516 -91 1145 -36 
Q 775 19 384 128 
L 384 978 
Q 719 816 1070 734 
Q 1422 653 1784 653 
Q 2113 653 2278 743 
Q 2444 834 2444 1013 
Q 2444 1163 2330 1236 
Q 2216 1309 1875 1350 
L 1678 1375 
Q 931 1469 631 1722 
Q 331 1975 331 2491 
Q 331 3047 712 3315 
Q 1094 3584 1881 3584 
Q 2191 3584 2531 3537 
Q 2872 3491 3272 3391 
z
" transform="scale(0.015625)"/>
      <path id="DejaVuSans-Bold-69" d="M 538 3500 
L 1656 3500 
L 1656 0 
L 538 0 
L 538 3500 
z
M 538 4863 
L 1656 4863 
L 1656 3950 
L 538 3950 
L 538 4863 
z
" transform="scale(0.015625)"/>
      <path id="DejaVuSans-Bold-74" d="M 1759 4494 
L 1759 3500 
L 2913 3500 
L 2913 2700 
L 1759 2700 
L 1759 1216 
Q 1759 972 1856 886 
Q 1953 800 2241 800 
L 2816 800 
L 2816 0 
L 1856 0 
Q 1194 0 917 276 
Q 641 553 641 1216 
L 641 2700 
L 84 2700 
L 84 3500 
L 641 3500 
L 641 4494 
L 1759 4494 
z
" transform="scale(0.015625)"/>
      <path id="DejaVuSans-Bold-72" d="M 3138 2547 
Q 2991 2616 2845 2648 
Q 2700 2681 2553 2681 
Q 2122 2681 1889 2404 
Q 1656 2128 1656 1613 
L 1656 0 
L 538 0 
L 538 3500 
L 1656 3500 
L 1656 2925 
Q 1872 3269 2151 3426 
Q 2431 3584 2822 3584 
Q 2878 3584 2943 3579 
Q 3009 3575 3134 3559 
L 3138 2547 
z
" transform="scale(0.015625)"/>
      <path id="DejaVuSans-Bold-79" d="M 78 3500 
L 1197 3500 
L 2138 1125 
L 2938 3500 
L 4056 3500 
L 2584 -331 
Q 2363 -916 2067 -1148 
Q 1772 -1381 1288 -1381 
L 641 -1381 
L 641 -647 
L 991 -647 
Q 1275 -647 1404 -556 
Q 1534 -466 1606 -231 
L 1638 -134 
L 78 3500 
z
" transform="scale(0.015625)"/>
      <path id="DejaVuSans-Bold-20" transform="scale(0.015625)"/>
      <path id="DejaVuSans-Bold-54" d="M 31 4666 
L 4331 4666 
L 4331 3756 
L 2784 3756 
L 2784 0 
L 1581 0 
L 1581 3756 
L 31 3756 
L 31 4666 
z
" transform="scale(0.015625)"/>
      <path id="DejaVuSans-Bold-61" d="M 2106 1575 
Q 1756 1575 1579 1456 
Q 1403 1338 1403 1106 
Q 1403 894 1545 773 
Q 1688 653 1941 653 
Q 2256 653 2472 879 
Q 2688 1106 2688 1447 
L 2688 1575 
L 2106 1575 
z
M 3816 1997 
L 3816 0 
L 2688 0 
L 2688 519 
Q 2463 200 2181 54 
Q 1900 -91 1497 -91 
Q 953 -91 614 226 
Q 275 544 275 1050 
Q 275 1666 698 1953 
Q 1122 2241 2028 2241 
L 2688 2241 
L 2688 2328 
Q 2688 2594 2478 2717 
Q 2269 2841 1825 2841 
Q 1466 2841 1156 2769 
Q 847 2697 581 2553 
L 581 3406 
Q 941 3494 1303 3539 
Q 1666 3584 2028 3584 
Q 2975 3584 3395 3211 
Q 3816 2838 3816 1997 
z
" transform="scale(0.015625)"/>
      <path id="DejaVuSans-Bold-66" d="M 2841 4863 
L 2841 4128 
L 2222 4128 
Q 1984 4128 1890 4042 
Q 1797 3956 1797 3744 
L 1797 3500 
L 2753 3500 
L 2753 2700 
L 1797 2700 
L 1797 0 
L 678 0 
L 678 2700 
L 122 2700 
L 122 3500 
L 678 3500 
L 678 3744 
Q 678 4316 997 4589 
Q 1316 4863 1984 4863 
L 2841 4863 
z
" transform="scale(0.015625)"/>
      <path id="DejaVuSans-Bold-63" d="M 3366 3391 
L 3366 2478 
Q 3138 2634 2908 2709 
Q 2678 2784 2431 2784 
Q 1963 2784 1702 2511 
Q 1441 2238 1441 1747 
Q 1441 1256 1702 982 
Q 1963 709 2431 709 
Q 2694 709 2930 787 
Q 3166 866 3366 1019 
L 3366 103 
Q 3103 6 2833 -42 
Q 2563 -91 2291 -91 
Q 1344 -91 809 395 
Q 275 881 275 1747 
Q 275 2613 809 3098 
Q 1344 3584 2291 3584 
Q 2566 3584 2833 3536 
Q 3100 3488 3366 3391 
z
" transform="scale(0.015625)"/>
      <path id="DejaVuSans-Bold-28" d="M 2413 -844 
L 1484 -844 
Q 1006 -72 778 623 
Q 550 1319 550 2003 
Q 550 2688 779 3389 
Q 1009 4091 1484 4856 
L 2413 4856 
Q 2013 4116 1813 3408 
Q 1613 2700 1613 2009 
Q 1613 1319 1811 609 
Q 2009 -100 2413 -844 
z
" transform="scale(0.015625)"/>
      <path id="DejaVuSans-Bold-31" d="M 750 831 
L 1813 831 
L 1813 3847 
L 722 3622 
L 722 4441 
L 1806 4666 
L 2950 4666 
L 2950 831 
L 4013 831 
L 4013 0 
L 750 0 
L 750 831 
z
" transform="scale(0.015625)"/>
      <path id="DejaVuSans-Bold-34" d="M 2356 3675 
L 1038 1722 
L 2356 1722 
L 2356 3675 
z
M 2156 4666 
L 3494 4666 
L 3494 1722 
L 4159 1722 
L 4159 850 
L 3494 850 
L 3494 0 
L 2356 0 
L 2356 850 
L 288 850 
L 288 1881 
L 2156 4666 
z
" transform="scale(0.015625)"/>
      <path id="DejaVuSans-Bold-2d" d="M 347 2297 
L 2309 2297 
L 2309 1388 
L 347 1388 
L 347 2297 
z
" transform="scale(0.015625)"/>
      <path id="DejaVuSans-Bold-44" d="M 1791 3756 
L 1791 909 
L 2222 909 
Q 2959 909 3348 1275 
Q 3738 1641 3738 2338 
Q 3738 3031 3350 3393 
Q 2963 3756 2222 3756 
L 1791 3756 
z
M 588 4666 
L 1856 4666 
Q 2919 4666 3439 4514 
Q 3959 4363 4331 4000 
Q 4659 3684 4818 3271 
Q 4978 2859 4978 2338 
Q 4978 1809 4818 1395 
Q 4659 981 4331 666 
Q 3956 303 3431 151 
Q 2906 0 1856 0 
L 588 0 
L 588 4666 
z
" transform="scale(0.015625)"/>
      <path id="DejaVuSans-Bold-48" d="M 588 4666 
L 1791 4666 
L 1791 2888 
L 3566 2888 
L 3566 4666 
L 4769 4666 
L 4769 0 
L 3566 0 
L 3566 1978 
L 1791 1978 
L 1791 0 
L 588 0 
L 588 4666 
z
" transform="scale(0.015625)"/>
      <path id="DejaVuSans-Bold-29" d="M 513 -844 
Q 913 -100 1113 609 
Q 1313 1319 1313 2009 
Q 1313 2700 1113 3408 
Q 913 4116 513 4856 
L 1441 4856 
Q 1916 4091 2145 3389 
Q 2375 2688 2375 2003 
Q 2375 1319 2147 623 
Q 1919 -72 1441 -844 
L 513 -844 
z
" transform="scale(0.015625)"/>
     </defs>
     <use xlink:href="#DejaVuSans-Bold-52"/>
     <use xlink:href="#DejaVuSans-Bold-65" transform="translate(77.001953 0)"/>
     <use xlink:href="#DejaVuSans-Bold-70" transform="translate(144.824219 0)"/>
     <use xlink:href="#DejaVuSans-Bold-6f" transform="translate(216.40625 0)"/>
     <use xlink:href="#DejaVuSans-Bold-73" transform="translate(285.107422 0)"/>
     <use xlink:href="#DejaVuSans-Bold-69" transform="translate(344.628906 0)"/>
     <use xlink:href="#DejaVuSans-Bold-74" transform="translate(378.90625 0)"/>
     <use xlink:href="#DejaVuSans-Bold-6f" transform="translate(426.708984 0)"/>
     <use xlink:href="#DejaVuSans-Bold-72" transform="translate(495.410156 0)"/>
     <use xlink:href="#DejaVuSans-Bold-79" transform="translate(544.726562 0)"/>
     <use xlink:href="#DejaVuSans-Bold-20" transform="translate(609.912109 0)"/>
     <use xlink:href="#DejaVuSans-Bold-54" transform="translate(644.726562 0)"/>
     <use xlink:href="#DejaVuSans-Bold-72" transform="translate(701.939453 0)"/>
     <use xlink:href="#DejaVuSans-Bold-61" transform="translate(751.255859 0)"/>
     <use xlink:href="#DejaVuSans-Bold-66" transform="translate(818.736328 0)"/>
     <use xlink:href="#DejaVuSans-Bold-66" transform="translate(862.242188 0)"/>
     <use xlink:href="#DejaVuSans-Bold-69" transform="translate(905.748047 0)"/>
     <use xlink:href="#DejaVuSans-Bold-63" transform="translate(940.025391 0)"/>
     <use xlink:href="#DejaVuSans-Bold-20" transform="translate(999.302734 0)"/>
     <use xlink:href="#DejaVuSans-Bold-28" transform="translate(1034.117188 0)"/>
     <use xlink:href="#DejaVuSans-Bold-31" transform="translate(1079.820312 0)"/>
     <use xlink:href="#DejaVuSans-Bold-34" transform="translate(1149.400391 0)"/>
     <use xlink:href="#DejaVuSans-Bold-2d" transform="translate(1218.980469 0)"/>
     <use xlink:href="#DejaVuSans-Bold-44" transform="translate(1260.484375 0)"/>
     <use xlink:href="#DejaVuSans-Bold-61" transform="translate(1343.492188 0)"/>
     <use xlink:href="#DejaVuSans-Bold-79" transform="translate(1407.847656 0)"/>
     <use xlink:href="#DejaVuSans-Bold-20" transform="translate(1473.033203 0)"/>
     <use xlink:href="#DejaVuSans-Bold-48" transform="translate(1507.847656 0)"/>
     <use xlink:href="#DejaVuSans-Bold-69" transform="translate(1591.539062 0)"/>
     <use xlink:href="#DejaVuSans-Bold-73" transform="translate(1625.816406 0)"/>
     <use xlink:href="#DejaVuSans-Bold-74" transform="translate(1685.337891 0)"/>
     <use xlink:href="#DejaVuSans-Bold-6f" transform="translate(1733.140625 0)"/>
     <use xlink:href="#DejaVuSans-Bold-72" transform="translate(1801.841797 0)"/>
     <use xlink:href="#DejaVuSans-Bold-79" transform="translate(1851.158203 0)"/>
     <use xlink:href="#DejaVuSans-Bold-29" transform="translate(1916.34375 0)"/>
    </g>
   </g>
   <g id="legend_1">
    <g id="line2d_16">
     <path d="M 42.2875 44.416563 
L 52.2875 44.416563 
L 62.2875 44.416563 
" style="fill: none; stroke: #58a6ff; stroke-width: 2; stroke-linecap: square"/>
     <g>
      <use xlink:href="#m3a03f00a9e" x="52.2875" y="44.416563" style="fill: #58a6ff; stroke: #58a6ff"/>
     </g>
    </g>
    <g id="text_15">
     <!-- Views -->
     <g style="fill: #8b949e" transform="translate(70.2875 47.916563) scale(0.1 -0.1)">
      <defs>
       <path id="DejaVuSans-56" d="M 1831 0 
L 50 4666 
L 709 4666 
L 2188 738 
L 3669 4666 
L 4325 4666 
L 2547 0 
L 1831 0 
z
" transform="scale(0.015625)"/>
       <path id="DejaVuSans-69" d="M 603 3500 
L 1178 3500 
L 1178 0 
L 603 0 
L 603 3500 
z
M 603 4863 
L 1178 4863 
L 1178 4134 
L 603 4134 
L 603 4863 
z
" transform="scale(0.015625)"/>
       <path id="DejaVuSans-65" d="M 3597 1894 
L 3597 1613 
L 953 1613 
Q 991 1019 1311 708 
Q 1631 397 2203 397 
Q 2534 397 2845 478 
Q 3156 559 3463 722 
L 3463 178 
Q 3153 47 2828 -22 
Q 2503 -91 2169 -91 
Q 1331 -91 842 396 
Q 353 884 353 1716 
Q 353 2575 817 3079 
Q 1281 3584 2069 3584 
Q 2775 3584 3186 3129 
Q 3597 2675 3597 1894 
z
M 3022 2063 
Q 3016 2534 2758 2815 
Q 2500 3097 2075 3097 
Q 1594 3097 1305 2825 
Q 1016 2553 972 2059 
L 3022 2063 
z
" transform="scale(0.015625)"/>
       <path id="DejaVuSans-77" d="M 269 3500 
L 844 3500 
L 1563 769 
L 2278 3500 
L 2956 3500 
L 3675 769 
L 4391 3500 
L 4966 3500 
L 4050 0 
L 3372 0 
L 2619 2869 
L 1863 0 
L 1184 0 
L 269 3500 
z
" transform="scale(0.015625)"/>
       <path id="DejaVuSans-73" d="M 2834 3397 
L 2834 2853 
Q 2591 2978 2328 3040 
Q 2066 3103 1784 3103 
Q 1356 3103 1142 2972 
Q 928 2841 928 2578 
Q 928 2378 1081 2264 
Q 1234 2150 1697 2047 
L 1894 2003 
Q 2506 1872 2764 1633 
Q 3022 1394 3022 966 
Q 3022 478 2636 193 
Q 2250 -91 1575 -91 
Q 1294 -91 989 -36 
Q 684 19 347 128 
L 347 722 
Q 666 556 975 473 
Q 1284 391 1588 391 
Q 1994 391 2212 530 
Q 2431 669 2431 922 
Q 2431 1156 2273 1281 
Q 2116 1406 1581 1522 
L 1381 1569 
Q 847 1681 609 1914 
Q 372 2147 372 2553 
Q 372 3047 722 3315 
Q 1072 3584 1716 3584 
Q 2034 3584 2315 3537 
Q 2597 3491 2834 3397 
z
" transform="scale(0.015625)"/>
      </defs>
      <use xlink:href="#DejaVuSans-56"/>
      <use xlink:href="#DejaVuSans-69" transform="translate(66.158203 0)"/>
      <use xlink:href="#DejaVuSans-65" transform="translate(93.941406 0)"/>
      <use xlink:href="#DejaVuSans-77" transform="translate(155.464844 0)"/>
      <use xlink:href="#DejaVuSans-73" transform="translate(237.251953 0)"/>
     </g>
    </g>
    <g id="line2d_17">
     <path d="M 42.2875 59.094688 
L 52.2875 59.094688 
L 62.2875 59.094688 
" style="fill: none; stroke: #3fb950; stroke-width: 2; stroke-linecap: square"/>
     <g>
      <use xlink:href="#m027efb8580" x="52.2875" y="59.094688" style="fill: #3fb950; stroke: #3fb950"/>
     </g>
    </g>
    <g id="text_16">
     <!-- Clones -->
     <g style="fill: #8b949e" transform="translate(70.2875 62.594688) scale(0.1 -0.1)">
      <defs>
       <path id="DejaVuSans-43" d="M 4122 4306 
L 4122 3641 
Q 3803 3938 3442 4084 
Q 3081 4231 2675 4231 
Q 1875 4231 1450 3742 
Q 1025 3253 1025 2328 
Q 1025 1406 1450 917 
Q 1875 428 2675 428 
Q 3081 428 3442 575 
Q 3803 722 4122 1019 
L 4122 359 
Q 3791 134 3420 21 
Q 3050 -91 2638 -91 
Q 1578 -91 968 557 
Q 359 1206 359 2328 
Q 359 3453 968 4101 
Q 1578 4750 2638 4750 
Q 3056 4750 3426 4639 
Q 3797 4528 4122 4306 
z
" transform="scale(0.015625)"/>
       <path id="DejaVuSans-6c" d="M 603 4863 
L 1178 4863 
L 1178 0 
L 603 0 
L 603 4863 
z
" transform="scale(0.015625)"/>
       <path id="DejaVuSans-6f" d="M 1959 3097 
Q 1497 3097 1228 2736 
Q 959 2375 959 1747 
Q 959 1119 1226 758 
Q 1494 397 1959 397 
Q 2419 397 2687 759 
Q 2956 1122 2956 1747 
Q 2956 2369 2687 2733 
Q 2419 3097 1959 3097 
z
M 1959 3584 
Q 2709 3584 3137 3096 
Q 3566 2609 3566 1747 
Q 3566 888 3137 398 
Q 2709 -91 1959 -91 
Q 1206 -91 779 398 
Q 353 888 353 1747 
Q 353 2609 779 3096 
Q 1206 3584 1959 3584 
z
" transform="scale(0.015625)"/>
       <path id="DejaVuSans-6e" d="M 3513 2113 
L 3513 0 
L 2938 0 
L 2938 2094 
Q 2938 2591 2744 2837 
Q 2550 3084 2163 3084 
Q 1697 3084 1428 2787 
Q 1159 2491 1159 1978 
L 1159 0 
L 581 0 
L 581 3500 
L 1159 3500 
L 1159 2956 
Q 1366 3272 1645 3428 
Q 1925 3584 2291 3584 
Q 2894 3584 3203 3211 
Q 3513 2838 3513 2113 
z
" transform="scale(0.015625)"/>
      </defs>
      <use xlink:href="#DejaVuSans-43"/>
      <use xlink:href="#DejaVuSans-6c" transform="translate(69.824219 0)"/>
      <use xlink:href="#DejaVuSans-6f" transform="translate(97.607422 0)"/>
      <use xlink:href="#DejaVuSans-6e" transform="translate(158.789062 0)"/>
      <use xlink:href="#DejaVuSans-65" transform="translate(222.167969 0)"/>
      <use xlink:href="#DejaVuSans-73" transform="translate(283.691406 0)"/>
     </g>
    </g>
   </g>
  </g>
 </g>
 <defs>
  <clipPath id="p2464faad65">
   <rect x="33.2875" y="31.318125" width="672.26" height="202.654093"/>
  </clipPath>
 </defs>
</svg>
